{
    "asset": {
        "version": "2.0",
        "generator": "Open Asset Import Library (assimp v5.4.0)"
    },
    "extensionsUsed": [
        "KHR_materials_volume",
        "FB_ngon_encoding"
    ],
    "accessors": [
        {
            "bufferView": 0,
            "byteOffset": 0,
            "componentType": 5126,
            "count": 421184,
            "type": "VEC3",
            "max": [
                0.6269440054893494,
                0.995032012462616,
                0.6536149978637695
            ],
            "min": [
                -0.6177909970283508,
                -1.002769947052002,
                -0.6212720274925232
            ]
        },
        {
            "bufferView": 1,
            "byteOffset": 0,
            "componentType": 5126,
            "count": 421184,
            "type": "VEC3",
            "max": [
                0.9999852180480957,
                0.9999992251396179,
                0.9999954104423523
            ],
            "min": [
                -0.9999858140945435,
                -0.9999982118606567,
                -0.999999463558197
            ]
        },
        {
            "bufferView": 2,
            "byteOffset": 0,
            "componentType": 5126,
            "count": 421184,
            "type": "VEC2",
            "max": [
                1.0,
                1.0
            ],
            "min": [
                0.0,
                0.0000010132789611816406
            ]
        },
        {
            "bufferView": 3,
            "byteOffset": 0,
            "componentType": 5125,
            "count": 1918887,
            "type": "SCALAR",
            "max": [
                421183
            ],
            "min": [
                0
            ]
        }
    ],
    "buffers": [
        {
            "byteLength": 21153436,
            "uri": "arjuna_0.bin"
        }
    ],
    "bufferViews": [
        {
            "buffer": 0,
            "byteOffset": 0,
            "byteLength": 5054208,
            "target": 34962
        },
        {
            "buffer": 0,
            "byteOffset": 5054208,
            "byteLength": 5054208,
            "target": 34962
        },
        {
            "buffer": 0,
            "byteOffset": 10108416,
            "byteLength": 3369472,
            "target": 34962
        },
        {
            "buffer": 0,
            "byteOffset": 13477888,
            "byteLength": 7675548,
            "target": 34963
        }
    ],
    "images": [
        {
            "uri": "textures/image_0.png"
        }
    ],
    "materials": [
        {
            "name": "Mat_1",
            "pbrMetallicRoughness": {
                "baseColorTexture": {
                    "index": 0
                },
                "metallicFactor": 0.0,
                "roughnessFactor": 0.800000011920929
            },
            "doubleSided": true
        }
    ],
    "meshes": [
        {
            "name": "meshes[0]",
            "primitives": [
                {
                    "mode": 4,
                    "material": 0,
                    "indices": 3,
                    "attributes": {
                        "POSITION": 0,
                        "NORMAL": 1,
                        "TEXCOORD_0": 2
                    }
                }
            ]
        }
    ],
    "nodes": [
        {
            "name": "arjuna",
            "children": [
                1
            ]
        },
        {
            "name": "mesh_0",
            "mesh": 0
        }
    ],
    "samplers": [
        {
            "magFilter": 9729,
            "minFilter": 9987
        }
    ],
    "scenes": [
        {
            "nodes": [
                0
            ]
        }
    ],
    "textures": [
        {
            "source": 0,
            "sampler": 0
        }
    ],
    "scene": 0
}