{
  "accessors": [
    {
      "bufferView": 2,
      "componentType": 5126,
      "count": 65532,
      "max": [
        0.8740940093994141,
        0.5324000120162964,
        0.3863840103149414
      ],
      "min": [
        -0.7501940131187439,
        -0.695921003818512,
        -0.3580400049686432
      ],
      "type": "VEC3"
    },
    {
      "bufferView": 2,
      "byteOffset": 786384,
      "componentType": 5126,
      "count": 65532,
      "max": [
        0.9999971389770508,
        0.9999948740005493,
        0.9999885559082031
      ],
      "min": [
        -0.9999291896820068,
        -0.9999845027923584,
        -0.9999884366989136
      ],
      "type": "VEC3"
    },
    {
      "bufferView": 1,
      "componentType": 5126,
      "count": 65532,
      "max": [
        0.9985399842262268,
        0.9984509944915771
      ],
      "min": [
        0.0014540000120177865,
        0.0014540000120177865
      ],
      "type": "VEC2"
    },
    {
      "bufferView": 0,
      "componentType": 5125,
      "count": 299979,
      "type": "SCALAR"
    },
    {
      "bufferView": 2,
      "byteOffset": 1572768,
      "componentType": 5126,
      "count": 65532,
      "max": [
        0.999439001083374,
        0.6911249756813049,
        0.5249159932136536
      ],
      "min": [
        -1.0045909881591797,
        -0.5178329944610596,
        -0.3842470049858093
      ],
      "type": "VEC3"
    },
    {
      "bufferView": 2,
      "byteOffset": 2359152,
      "componentType": 5126,
      "count": 65532,
      "max": [
        0.9999971389770508,
        0.9999712705612183,
        0.9999984502792358
      ],
      "min": [
        -0.9999724626541138,
        -0.9999713897705078,
        -0.999970555305481
      ],
      "type": "VEC3"
    },
    {
      "bufferView": 1,
      "byteOffset": 524256,
      "componentType": 5126,
      "count": 65532,
      "max": [
        0.9985460042953491,
        0.9984560012817383
      ],
      "min": [
        0.0014540000120177865,
        0.0014540000120177865
      ],
      "type": "VEC2"
    },
    {
      "bufferView": 0,
      "byteOffset": 1199916,
      "componentType": 5125,
      "count": 292008,
      "type": "SCALAR"
    },
    {
      "bufferView": 2,
      "byteOffset": 3145536,
      "componentType": 5126,
      "count": 65534,
      "max": [
        0.8227019906044006,
        0.9989740252494812,
        0.5262699723243713
      ],
      "min": [
        -1.0045909881591797,
        -0.5209059715270996,
        -0.5929210186004639
      ],
      "type": "VEC3"
    },
    {
      "bufferView": 2,
      "byteOffset": 3931944,
      "componentType": 5126,
      "count": 65534,
      "max": [
        0.999607264995575,
        0.9999946355819702,
        0.9999681711196899
      ],
      "min": [
        -0.9999669790267944,
        -0.9999425411224365,
        -0.9999281167984009
      ],
      "type": "VEC3"
    },
    {
      "bufferView": 1,
      "byteOffset": 1048512,
      "componentType": 5126,
      "count": 65534,
      "max": [
        0.9985439777374268,
        0.998462975025177
      ],
      "min": [
        0.0014540000120177865,
        0.0014540000120177865
      ],
      "type": "VEC2"
    },
    {
      "bufferView": 0,
      "byteOffset": 2367948,
      "componentType": 5125,
      "count": 271266,
      "type": "SCALAR"
    },
    {
      "bufferView": 2,
      "byteOffset": 4718352,
      "componentType": 5126,
      "count": 27622,
      "max": [
        0.9668580293655396,
        0.009332000277936459,
        0.2420250028371811
      ],
      "min": [
        -0.427046000957489,
        -0.520563006401062,
        -0.26872900128364563
      ],
      "type": "VEC3"
    },
    {
      "bufferView": 2,
      "byteOffset": 5049816,
      "componentType": 5126,
      "count": 27622,
      "max": [
        0.99985671043396,
        0.9998442530632019,
        0.9999762773513794
      ],
      "min": [
        -0.9994007349014282,
        -0.9998278021812439,
        -0.9999734163284302
      ],
      "type": "VEC3"
    },
    {
      "bufferView": 1,
      "byteOffset": 1572784,
      "componentType": 5126,
      "count": 27622,
      "max": [
        0.9985439777374268,
        0.9984679818153381
      ],
      "min": [
        0.0014540000120177865,
        0.0014540000120177865
      ],
      "type": "VEC2"
    },
    {
      "bufferView": 0,
      "byteOffset": 3453012,
      "componentType": 5125,
      "count": 101505,
      "type": "SCALAR"
    }
  ],
  "asset": {
    "extras": {
      "author": "go3452 (https://sketchfab.com/go3452)",
      "license": "CC-BY-4.0 (http://creativecommons.org/licenses/by/4.0/)",
      "source": "https://sketchfab.com/3d-models/licorice--root--bundle-0218075714-texture-obj-452d7ad88ecd48d3848bf47bb6547597",
      "title": "Licorice_ Root_ Bundle_0218075714_texture_obj"
    },
    "generator": "Sketchfab-16.60.0",
    "version": "2.0"
  },
  "bufferViews": [
    {
      "buffer": 0,
      "byteLength": 3859032,
      "name": "floatBufferViews",
      "target": 34963
    },
    {
      "buffer": 0,
      "byteLength": 1793760,
      "byteOffset": 3859032,
      "byteStride": 8,
      "name": "floatBufferViews",
      "target": 34962
    },
    {
      "buffer": 0,
      "byteLength": 5381280,
      "byteOffset": 5652792,
      "byteStride": 12,
      "name": "floatBufferViews",
      "target": 34962
    }
  ],
  "buffers": [
    {
      "byteLength": 11034072,
      "uri": "scene.bin"
    }
  ],
  "images": [
    {
      "uri": "textures/Material.001_baseColor.png"
    }
  ],
  "materials": [
    {
      "doubleSided": true,
      "name": "Material.001",
      "pbrMetallicRoughness": {
        "baseColorTexture": {
          "index": 0
        },
        "metallicFactor": 0.0,
        "roughnessFactor": 0.8011823178082373
      }
    }
  ],
  "meshes": [
    {
      "name": "Object_0",
      "primitives": [
        {
          "attributes": {
            "NORMAL": 1,
            "POSITION": 0,
            "TEXCOORD_0": 2
          },
          "indices": 3,
          "material": 0,
          "mode": 4
        }
      ]
    },
    {
      "name": "Object_1",
      "primitives": [
        {
          "attributes": {
            "NORMAL": 5,
            "POSITION": 4,
            "TEXCOORD_0": 6
          },
          "indices": 7,
          "material": 0,
          "mode": 4
        }
      ]
    },
    {
      "name": "Object_2",
      "primitives": [
        {
          "attributes": {
            "NORMAL": 9,
            "POSITION": 8,
            "TEXCOORD_0": 10
          },
          "indices": 11,
          "material": 0,
          "mode": 4
        }
      ]
    },
    {
      "name": "Object_3",
      "primitives": [
        {
          "attributes": {
            "NORMAL": 13,
            "POSITION": 12,
            "TEXCOORD_0": 14
          },
          "indices": 15,
          "material": 0,
          "mode": 4
        }
      ]
    }
  ],
  "nodes": [
    {
      "children": [
        1
      ],
      "matrix": [
        1.0,
        0.0,
        0.0,
        0.0,
        0.0,
        2.220446049250313e-16,
        -1.0,
        0.0,
        0.0,
        1.0,
        2.220446049250313e-16,
        0.0,
        0.0,
        0.0,
        0.0,
        1.0
      ],
      "name": "Sketchfab_model"
    },
    {
      "children": [
        2,
        3,
        4,
        5
      ],
      "name": "Licorice_Root_Bundle_0218075714_texture.obj.cleaner.materialmerger.gles"
    },
    {
      "mesh": 0,
      "name": "Object_2"
    },
    {
      "mesh": 1,
      "name": "Object_3"
    },
    {
      "mesh": 2,
      "name": "Object_4"
    },
    {
      "mesh": 3,
      "name": "Object_5"
    }
  ],
  "samplers": [
    {
      "magFilter": 9729,
      "minFilter": 9987,
      "wrapS": 10497,
      "wrapT": 10497
    }
  ],
  "scene": 0,
  "scenes": [
    {
      "name": "Sketchfab_Scene",
      "nodes": [
        0
      ]
    }
  ],
  "textures": [
    {
      "sampler": 0,
      "source": 0
    }
  ]
}
