{
    "asset": {
        "version": "2.0",
        "generator": "Open Asset Import Library (assimp v5.4.0)"
    },
    "extensionsUsed": [
        "KHR_materials_volume",
        "FB_ngon_encoding"
    ],
    "accessors": [
        {
            "bufferView": 0,
            "byteOffset": 0,
            "componentType": 5126,
            "count": 99339,
            "type": "VEC3",
            "max": [
                0.7623720169067383,
                1.0013999938964844,
                0.7564719915390015
            ],
            "min": [
                -0.766677975654602,
                -1.0023000240325928,
                -0.7685739994049072
            ]
        },
        {
            "bufferView": 1,
            "byteOffset": 0,
            "componentType": 5126,
            "count": 99339,
            "type": "VEC3",
            "max": [
                0.9999630451202393,
                0.9999536275863647,
                0.9999100565910339
            ],
            "min": [
                -0.9999615550041199,
                -0.9999902248382568,
                -0.9999793171882629
            ]
        },
        {
            "bufferView": 2,
            "byteOffset": 0,
            "componentType": 5126,
            "count": 99339,
            "type": "VEC2",
            "max": [
                1.0,
                1.0
            ],
            "min": [
                0.000013768672943115234,
                0.000007987022399902344
            ]
        },
        {
            "bufferView": 3,
            "byteOffset": 0,
            "componentType": 5125,
            "count": 518700,
            "type": "SCALAR",
            "max": [
                99338
            ],
            "min": [
                0
            ]
        }
    ],
    "buffers": [
        {
            "byteLength": 5253648,
            "uri": "Tinospora_cordifolia__0326055533_texture_0.bin"
        }
    ],
    "bufferViews": [
        {
            "buffer": 0,
            "byteOffset": 0,
            "byteLength": 1192068,
            "target": 34962
        },
        {
            "buffer": 0,
            "byteOffset": 1192068,
            "byteLength": 1192068,
            "target": 34962
        },
        {
            "buffer": 0,
            "byteOffset": 2384136,
            "byteLength": 794712,
            "target": 34962
        },
        {
            "buffer": 0,
            "byteOffset": 3178848,
            "byteLength": 2074800,
            "target": 34963
        }
    ],
    "images": [
        {
            "uri": "textures/image_0.png"
        }
    ],
    "materials": [
        {
            "name": "Mat_1",
            "pbrMetallicRoughness": {
                "baseColorTexture": {
                    "index": 0
                },
                "metallicFactor": 0.0,
                "roughnessFactor": 0.800000011920929
            },
            "doubleSided": true
        }
    ],
    "meshes": [
        {
            "name": "meshes[0]",
            "primitives": [
                {
                    "mode": 4,
                    "material": 0,
                    "indices": 3,
                    "attributes": {
                        "POSITION": 0,
                        "NORMAL": 1,
                        "TEXCOORD_0": 2
                    }
                }
            ]
        }
    ],
    "nodes": [
        {
            "name": "Tinospora_cordifolia__0326055533_texture",
            "children": [
                1
            ]
        },
        {
            "name": "mesh_0",
            "mesh": 0
        }
    ],
    "samplers": [
        {
            "magFilter": 9729,
            "minFilter": 9987
        }
    ],
    "scenes": [
        {
            "nodes": [
                0
            ]
        }
    ],
    "textures": [
        {
            "source": 0,
            "sampler": 0
        }
    ],
    "scene": 0
}