{
    "asset": {
        "version": "2.0",
        "generator": "Open Asset Import Library (assimp v5.4.0)"
    },
    "extensionsUsed": [
        "KHR_materials_volume",
        "FB_ngon_encoding"
    ],
    "accessors": [
        {
            "bufferView": 0,
            "byteOffset": 0,
            "componentType": 5126,
            "count": 395853,
            "type": "VEC3",
            "max": [
                0.841346025466919,
                0.9786840081214905,
                0.7374709844589233
            ],
            "min": [
                -0.8718370199203491,
                -0.9995539784431458,
                -0.7165960073471069
            ]
        },
        {
            "bufferView": 1,
            "byteOffset": 0,
            "componentType": 5126,
            "count": 395853,
            "type": "VEC3",
            "max": [
                0.999999463558197,
                1.0,
                0.9999991059303284
            ],
            "min": [
                -0.9999997615814209,
                -1.0,
                -0.9999993443489075
            ]
        },
        {
            "bufferView": 2,
            "byteOffset": 0,
            "componentType": 5126,
            "count": 395853,
            "type": "VEC2",
            "max": [
                1.0,
                1.0
            ],
            "min": [
                0.00001055002212524414,
                0.00006401538848876953
            ]
        },
        {
            "bufferView": 3,
            "byteOffset": 0,
            "componentType": 5125,
            "count": 1913673,
            "type": "SCALAR",
            "max": [
                395852
            ],
            "min": [
                0
            ]
        }
    ],
    "buffers": [
        {
            "byteLength": 20321988,
            "uri": "peppermint_0.bin"
        }
    ],
    "bufferViews": [
        {
            "buffer": 0,
            "byteOffset": 0,
            "byteLength": 4750236,
            "target": 34962
        },
        {
            "buffer": 0,
            "byteOffset": 4750236,
            "byteLength": 4750236,
            "target": 34962
        },
        {
            "buffer": 0,
            "byteOffset": 9500472,
            "byteLength": 3166824,
            "target": 34962
        },
        {
            "buffer": 0,
            "byteOffset": 12667296,
            "byteLength": 7654692,
            "target": 34963
        }
    ],
    "images": [
        {
            "uri": "textures/image_0.png"
        }
    ],
    "materials": [
        {
            "name": "Mat_1",
            "pbrMetallicRoughness": {
                "baseColorTexture": {
                    "index": 0
                },
                "metallicFactor": 0.0,
                "roughnessFactor": 0.800000011920929
            },
            "doubleSided": true
        }
    ],
    "meshes": [
        {
            "name": "meshes[0]",
            "primitives": [
                {
                    "mode": 4,
                    "material": 0,
                    "indices": 3,
                    "attributes": {
                        "POSITION": 0,
                        "NORMAL": 1,
                        "TEXCOORD_0": 2
                    }
                }
            ]
        }
    ],
    "nodes": [
        {
            "name": "peppermint",
            "children": [
                1
            ]
        },
        {
            "name": "mesh_0",
            "mesh": 0
        }
    ],
    "samplers": [
        {
            "magFilter": 9729,
            "minFilter": 9987
        }
    ],
    "scenes": [
        {
            "nodes": [
                0
            ]
        }
    ],
    "textures": [
        {
            "source": 0,
            "sampler": 0
        }
    ],
    "scene": 0
}